<?xml version="1.0" encoding="iso-8859-1"?>
<!-- Generator: Adobe Illustrator 19.0.0, SVG Export Plug-In . SVG Version: 6.00 Build 0)  -->
<svg version="1.1" id="Capa_1" xmlns="http://www.w3.org/2000/svg" xmlns:xlink="http://www.w3.org/1999/xlink" x="0px" y="0px"
	 viewBox="0 0 512 512" style="enable-background:new 0 0 512 512;" xml:space="preserve">
<g>
	<g>
		<path d="M502,125c5.522,0,10-4.477,10-10V10c0-5.523-4.478-10-10-10H10C4.478,0,0,4.477,0,10v492c0,5.522,4.478,10,10,10h470.25
			c17.507,0,31.75-14.243,31.75-31.75V202.379c0-1.52-0.347-3.019-1.013-4.384l-40-82c-1.676-3.436-5.164-5.616-8.987-5.616
			s-7.312,2.18-8.987,5.616l-40,82c-0.666,1.366-1.013,2.865-1.013,4.384V480.25c0,4.15,0.809,8.113,2.263,11.75H20V91.949
			C20.33,91.982,20.665,92,21.004,92H492v23C492,120.523,496.478,125,502,125z M462,143.188l23.996,49.191h-47.991L462,143.188z
			 M432,212.379h60v223.495h-24.333v-86.452c0-5.523-4.478-10-10-10c-5.522,0-10,4.478-10,10v86.452H432V212.379z M432,455.874h60
			v24.376c0,6.479-5.271,11.75-11.75,11.75h-36.5c-6.479,0-11.75-5.271-11.75-11.75V455.874z M21.004,72
			c-0.339,0-0.674,0.018-1.004,0.051V20h472v52H21.004z"/>
	</g>
</g>
<g>
	<g>
		<path d="M448,36H222.065c-5.522,0-10,4.477-10,10s4.478,10,10,10H448c5.522,0,10-4.477,10-10S453.522,36,448,36z"/>
	</g>
</g>
<g>
	<g>
		<path d="M111.069,38.93C109.21,37.07,106.63,36,104,36c-2.641,0-5.21,1.07-7.07,2.93C95.069,40.79,94,43.37,94,46
			s1.069,5.21,2.93,7.07C98.791,54.93,101.37,56,104,56s5.21-1.07,7.069-2.93C112.93,51.21,114,48.63,114,46
			S112.93,40.79,111.069,38.93z"/>
	</g>
</g>
<g>
	<g>
		<path d="M71.069,38.93C69.21,37.07,66.63,36,64,36s-5.21,1.07-7.07,2.93C55.069,40.79,54,43.37,54,46s1.069,5.21,2.93,7.07
			C58.791,54.93,61.37,56,64,56s5.21-1.07,7.069-2.93C72.93,51.21,74,48.63,74,46S72.93,40.79,71.069,38.93z"/>
	</g>
</g>
<g>
	<g>
		<path d="M151.069,38.93C149.21,37.07,146.63,36,144,36s-5.21,1.07-7.07,2.93S134,43.37,134,46s1.069,5.21,2.93,7.07
			c1.861,1.86,4.44,2.93,7.07,2.93s5.21-1.07,7.069-2.93C152.93,51.21,154,48.63,154,46S152.93,40.79,151.069,38.93z"/>
	</g>
</g>
<g>
	<g>
		<path d="M204,120H64c-5.522,0-10,4.477-10,10v144c0,5.522,4.478,10,10,10h140c5.522,0,10-4.478,10-10V130
			C214,124.477,209.522,120,204,120z M194,264H74V140h120V264z"/>
	</g>
</g>
<g>
	<g>
		<path d="M457.667,308.34c-5.522,0-10,4.478-10,10v0.12c0,5.522,4.478,10,10,10c5.522,0,10-4.478,10-10v-0.12
			C467.667,312.818,463.189,308.34,457.667,308.34z"/>
	</g>
</g>
<g>
	<g>
		<path d="M379.291,120H251c-5.522,0-10,4.477-10,10s4.478,10,10,10h128.291c5.522,0,10-4.477,10-10S384.813,120,379.291,120z"/>
	</g>
</g>
<g>
	<g>
		<path d="M379.291,168H251c-5.522,0-10,4.477-10,10s4.478,10,10,10h128.291c5.522,0,10-4.477,10-10S384.813,168,379.291,168z"/>
	</g>
</g>
<g>
	<g>
		<path d="M379.291,216H251c-5.522,0-10,4.477-10,10s4.478,10,10,10h128.291c5.522,0,10-4.477,10-10S384.813,216,379.291,216z"/>
	</g>
</g>
<g>
	<g>
		<path d="M300.226,264H251c-5.522,0-10,4.478-10,10c0,5.522,4.478,10,10,10h49.226c5.522,0,10-4.478,10-10
			C310.226,268.478,305.748,264,300.226,264z"/>
	</g>
</g>
<g>
	<g>
		<path d="M379.291,332h-120.79c-5.522,0-10,4.478-10,10c0,5.522,4.478,10,10,10h120.79c5.522,0,10-4.478,10-10
			C389.291,336.478,384.813,332,379.291,332z"/>
	</g>
</g>
<g>
	<g>
		<path d="M203.998,332h-92.946c-5.522,0-10,4.478-10,10c0,5.522,4.478,10,10,10h92.946c5.522,0,10-4.478,10-10
			C213.998,336.478,209.521,332,203.998,332z"/>
	</g>
</g>
<g>
	<g>
		<path d="M71.069,334.93C69.21,333.069,66.63,332,64,332s-5.21,1.069-7.07,2.93C55.07,336.791,54,339.37,54,342
			s1.069,5.21,2.93,7.069C58.79,350.93,61.37,352,64,352s5.21-1.07,7.069-2.931C72.93,347.21,74,344.63,74,342
			S72.93,336.79,71.069,334.93z"/>
	</g>
</g>
<g>
	<g>
		<path d="M379.291,380h-120.79c-5.522,0-10,4.478-10,10c0,5.522,4.478,10,10,10h120.79c5.522,0,10-4.478,10-10
			C389.291,384.478,384.813,380,379.291,380z"/>
	</g>
</g>
<g>
	<g>
		<path d="M203.998,380H64c-5.522,0-10,4.478-10,10c0,5.522,4.478,10,10,10h139.998c5.522,0,10-4.478,10-10
			C213.998,384.478,209.521,380,203.998,380z"/>
	</g>
</g>
<g>
	<g>
		<path d="M379.291,428h-120.79c-5.522,0-10,4.478-10,10c0,5.522,4.478,10,10,10h120.79c5.522,0,10-4.478,10-10
			C389.291,432.478,384.813,428,379.291,428z"/>
	</g>
</g>
<g>
	<g>
		<path d="M203.998,428H64c-5.522,0-10,4.478-10,10c0,5.522,4.478,10,10,10h139.998c5.522,0,10-4.478,10-10
			C213.998,432.478,209.521,428,203.998,428z"/>
	</g>
</g>
<g>
	<g>
		<path d="M172.202,232.443l-28.989-68.667c-1.563-3.704-5.193-6.111-9.213-6.111s-7.649,2.407-9.213,6.111l-28.989,68.667
			c-2.148,5.089,0.235,10.955,5.323,13.103c5.091,2.146,10.954-0.236,13.103-5.324l3.626-8.59h32.3l3.626,8.59
			c1.612,3.819,5.317,6.113,9.217,6.113c1.297,0,2.616-0.254,3.886-0.79C171.967,243.397,174.35,237.531,172.202,232.443z
			 M126.294,211.632L134,193.378l7.707,18.254H126.294z"/>
	</g>
</g>
<g>
</g>
<g>
</g>
<g>
</g>
<g>
</g>
<g>
</g>
<g>
</g>
<g>
</g>
<g>
</g>
<g>
</g>
<g>
</g>
<g>
</g>
<g>
</g>
<g>
</g>
<g>
</g>
<g>
</g>
</svg>
